<svg xmlns="http://www.w3.org/2000/svg" width="1400" height="980" viewBox="0 0 1400 980">
  <!-- angular hamburg background (c) Hendrik Runte & angular.hamburg -->
  <defs>
    <linearGradient id="angular-hamburg.-background-#0e0d10-a" x1="50%" x2="50%" y1="0%" y2="100%">
      <stop offset="0%" stop-color="#211F25"/>
      <stop offset="49.052%" stop-color="#5A5365"/>
      <stop offset="56.039%" stop-color="#25232A"/>
      <stop offset="100%" stop-color="#0E0D10"/>
    </linearGradient>
    <linearGradient id="angular-hamburg.-background-#0e0d10-b" x1="50%" x2="50%" y1="0%" y2="100%">
      <stop offset="0%" stop-color="#E7D8FF"/>
      <stop offset="100%" stop-color="#5A5464"/>
    </linearGradient>
  </defs>
  <g fill="none" fill-rule="evenodd">
    <polygon fill="url(#angular-hamburg.-background-#0e0d10-a)" points="0 979.999 1400 979.999 1400 0 0 0"/>
    <polygon fill="#E6E7E8" points="30.807 335.44 30.807 356.202 24.11 356.202 24.11 388.349 9.376 388.349 9.376 425.853 0 425.853 0 538.84 1400 538.84 1400 405.761 1368.24 405.761 1368.24 358.212 1288.55 358.212 1288.55 415.808 1251.71 415.808 1251.71 387.01 1190.1 387.01 1190.1 375.288 1145.56 375.288 1135.85 385 1105.71 385 1105.71 411.79 1078.92 411.79 1078.92 360.555 1044.43 360.555 1034.39 370.601 1022 382.991 1022 395.381 993.869 395.381 993.869 382.322 976.456 382.322 968.42 390.358 935.603 390.358 935.603 374.285 889.393 374.285 889.393 395.381 880.016 395.381 880.016 350.845 851.219 350.845 851.219 358.881 814.384 358.881 814.384 344.816 785.585 344.816 785.585 401.074 772.191 401.074 772.191 375.624 764.154 375.624 764.154 366.248 740.713 366.248 740.713 382.322 721.291 382.322 721.291 355.532 687.806 355.532 677.091 366.248 635.568 366.248 626.862 374.955 613.467 374.955 613.467 399.734 577.3 399.734 577.3 366.248 555.871 366.248 555.871 358.212 539.127 358.212 539.127 338.789 528.411 338.789 528.411 358.212 520.375 358.212 520.375 385 502.962 385 502.962 417.147 495.595 417.147 495.595 382.657 481.197 382.657 472.825 391.028 435.991 391.028 435.991 373.615 389.778 373.615 389.778 405.092 383.081 405.092 383.081 351.514 374.375 351.514 374.375 338.789 362.989 338.789 362.989 351.514 356.294 351.514 356.294 406.431 326.825 406.431 326.825 358.211 316.11 358.211 316.11 344.816 289.99 344.816 289.99 401.073 276.596 401.073 276.596 367.587 242.439 367.587 242.439 393.036 190.201 393.036 190.201 356.202 165.422 356.202 165.422 366.918 141.311 366.918 133.275 374.954 111.844 374.954 111.844 397.055 54.247 397.055 54.247 356.202 40.853 356.202 40.853 335.44" opacity=".047"/>
    <polygon fill="url(#angular-hamburg.-background-#0e0d10-b)" points="30.807 535.44 30.807 550.649 24.11 550.649 24.11 574.198 9.376 574.198 9.376 601.672 0 601.672 0 684.44 1400 684.44 1400 586.953 1368.24 586.953 1368.24 552.122 1288.55 552.122 1288.55 594.313 1251.71 594.313 1251.71 573.217 1190.1 573.217 1190.1 564.631 1145.56 564.631 1135.85 571.745 1105.71 571.745 1105.71 591.37 1078.92 591.37 1078.92 553.838 1044.43 553.838 1034.39 561.197 1022 570.273 1022 579.35 993.869 579.35 993.869 569.783 976.456 569.783 968.42 575.67 935.603 575.67 935.603 563.896 889.393 563.896 889.393 579.35 880.016 579.35 880.016 546.725 851.219 546.725 851.219 552.612 814.384 552.612 814.384 542.308 785.585 542.308 785.585 583.52 772.191 583.52 772.191 564.877 764.154 564.877 764.154 558.008 740.713 558.008 740.713 569.783 721.291 569.783 721.291 550.158 687.806 550.158 677.091 558.008 635.568 558.008 626.862 564.387 613.467 564.387 613.467 582.538 577.3 582.538 577.3 558.008 555.871 558.008 555.871 552.122 539.127 552.122 539.127 537.893 528.411 537.893 528.411 552.122 520.375 552.122 520.375 571.745 502.962 571.745 502.962 595.294 495.595 595.294 495.595 570.029 481.197 570.029 472.825 576.161 435.991 576.161 435.991 563.405 389.778 563.405 389.778 586.463 383.081 586.463 383.081 547.215 374.375 547.215 374.375 537.893 362.989 537.893 362.989 547.215 356.294 547.215 356.294 587.444 326.825 587.444 326.825 552.121 316.11 552.121 316.11 542.308 289.99 542.308 289.99 583.519 276.596 583.519 276.596 558.989 242.439 558.989 242.439 577.632 190.201 577.632 190.201 550.649 165.422 550.649 165.422 558.499 141.311 558.499 133.275 564.386 111.844 564.386 111.844 580.576 54.247 580.576 54.247 550.649 40.853 550.649 40.853 535.44" opacity=".01" transform="rotate(180 700 609.94)"/>
    <g opacity=".154" transform="translate(35.928 279.889)">
      <polygon fill="#C6C8CA" points="874.369 240.191 953.314 240.191 953.314 85.663 874.369 85.663"/>
      <polygon fill="#C6C8CA" points="874.369 136.052 940.716 136.052 940.716 0 874.369 0"/>
      <polygon fill="#C6C8CA" points="688.533 245.084 772.562 245.084 772.562 79.095 688.533 79.095"/>
      <path stroke="#C6C8CA" stroke-linecap="round" stroke-linejoin="round" stroke-width="3.647" d="M685.527 66.115L775.569 66.115M690.525 66.115L710.03 85.662M708.394 66.115L722.28 87.553M730.549 66.115L730.549 83.47M770.571 66.115L751.068 85.662M752.702 66.115L738.818 87.553"/>
      <polygon fill="#C6C8CA" points="458.685 253.867 587.458 253.867 587.458 90.971 458.685 90.971"/>
      <polygon fill="#C6C8CA" points="458.685 151.205 565.501 151.205 565.501 81.775 458.685 81.775"/>
      <polygon fill="#C6C8CA" points="458.685 106.401 489.247 106.401 489.247 47.356 458.685 47.356"/>
      <polygon fill="#C6C8CA" points="469.071 50.917 472.038 50.917 472.038 17.981 469.071 17.981"/>
      <polygon fill="#C6C8CA" points="330.403 236.362 354.734 236.362 354.734 93.941 330.403 93.941"/>
      <polygon fill="#C6C8CA" points="365.712 253.867 393.009 253.867 393.009 108.182 365.712 108.182"/>
      <polygon fill="#C6C8CA" points="344.349 236.362 379.36 236.362 379.36 111.743 344.349 111.743"/>
      <polygon fill="#C6C8CA" points="0 258.95 46.015 258.95 46.015 167.574 0 167.574"/>
      <polygon fill="#C6C8CA" points="5.875 198.577 46.015 198.577 46.015 163.748 5.875 163.748"/>
      <polygon fill="#C6C8CA" points="8.323 165.29 35.899 165.29 35.899 155.336 8.323 155.336"/>
      <polygon fill="#C6C8CA" points="15.013 157.458 25.945 157.458 25.945 150.604 15.013 150.604"/>
      <polygon fill="#C6C8CA" points="18.929 152.562 23.008 152.562 23.008 147.341 18.929 147.341"/>
      <polygon fill="#C6C8CA" points="20.152 148.809 21.784 148.809 21.784 112.911 20.152 112.911"/>
      <path stroke="#C6C8CA" stroke-linecap="round" stroke-linejoin="round" stroke-width="1.977" d="M1034.872 194.249L1119.932 194.249M1034.872 198.477L1071.802 198.477"/>
      <path stroke="#C6C8CA" stroke-linecap="round" stroke-linejoin="round" d="M1053.552,187.599 L1053.552,232.305"/>
      <path stroke="#C6C8CA" stroke-linecap="round" stroke-linejoin="round" stroke-width="1.977" d="M1071.802 194.249L1071.802 231.749M1050.662 215.142L1071.802 215.142M1057.752 217.878L1071.802 217.878"/>
      <polyline stroke="#C6C8CA" stroke-linecap="round" stroke-linejoin="round" points="1049.542 189.896 1072.612 176.685 1115.212 194.249"/>
      <polyline stroke="#C6C8CA" stroke-linecap="round" stroke-linejoin="round" points="1053.552 194.249 1072.612 176.685 1095.432 194.249"/>
      <polyline stroke="#C6C8CA" stroke-linecap="round" stroke-linejoin="round" points="1061.232 194.249 1072.612 176.685 1076.162 194.249"/>
      <polyline stroke="#C6C8CA" stroke-linecap="round" stroke-linejoin="round" points="1059.992 215.142 1053.552 207.307 1062.232 198.477"/>
      <path stroke="#C6C8CA" stroke-linecap="round" stroke-linejoin="round" d="M1060.862 215.142L1060.862 198.477M1060.862 208.8L1071.802 200.615M1060.242 217.878L1060.242 233.921"/>
      <polygon fill="#C6C8CA" points="1071.802 235.787 1084.736 235.787 1084.736 203.652 1071.802 203.652"/>
      <polygon fill="#C6C8CA" points="1081.752 239.394 1094.065 239.394 1094.065 206.81 1081.752 206.81"/>
      <polygon fill="#C6C8CA" points="1090.582 229.444 1096.801 229.444 1096.801 199.223 1090.582 199.223"/>
      <polygon fill="#C6C8CA" points="1094.942 231.749 1104.518 231.749 1104.518 206.312 1094.942 206.312"/>
      <polygon fill="#C6C8CA" points="1102.402 234.544 1114.217 234.544 1114.217 201.711 1102.402 201.711"/>
      <path stroke="#C6C8CA" stroke-linecap="round" stroke-linejoin="round" stroke-width="3.647" d="M279.238,171.592 C279.238,141.999 255.212,117.972 225.619,117.972 C196.025,117.972 171.999,141.999 171.999,171.592 C171.999,201.185 196.025,225.211 225.619,225.211 C255.212,225.211 279.238,201.185 279.238,171.592 Z"/>
      <path stroke="#C6C8CA" stroke-linecap="round" stroke-linejoin="round" stroke-width="1.473" d="M225.618 117.973L225.618 225.212M171.999 171.593L279.238 171.593M187.704 133.677L263.534 209.508M187.705 209.509L263.534 133.68M205.1 122.054L246.138 221.13M176.082 192.112L275.157 151.073M176.081 151.073L275.159 192.113M205.101 221.131L246.139 122.056"/>
      <path stroke="#C6C8CA" stroke-linecap="round" stroke-linejoin="round" stroke-width="3.647" d="M225.584 171.045L261.614 234.594M225.584 171.045L189.554 234.594"/>
      <path fill="#C6C8CA" d="M230.159 113.433C230.159 115.94 228.127 117.973 225.619 117.973 223.113 117.973 221.08 115.94 221.08 113.433 221.08 110.927 223.113 108.894 225.619 108.894 228.127 108.894 230.159 110.927 230.159 113.433M207.763 116.067C208.723 118.383 207.622 121.039 205.307 121.998 202.991 122.958 200.336 121.858 199.376 119.541 198.418 117.226 199.516 114.57 201.833 113.611 204.148 112.651 206.805 113.752 207.763 116.067M188.079 127.071C189.852 128.845 189.852 131.719 188.08 133.49 186.307 135.264 183.433 135.263 181.66 133.49 179.89 131.719 179.888 128.843 181.661 127.071 183.433 125.299 186.308 125.299 188.079 127.071M174.106 144.771C176.423 145.731 177.523 148.387 176.563 150.701 175.604 153.018 172.948 154.118 170.631 153.159 168.317 152.199 167.216 149.544 168.176 147.227 169.136 144.913 171.793 143.812 174.106 144.771M167.97 166.47C170.477 166.471 172.511 168.503 172.509001 171.01 172.509001 173.517 170.477 175.549 167.97 175.549 165.464 175.548 163.431 173.516 163.431 171.008 163.432 168.503 165.466 166.469 167.97 166.47M170.604 188.866C172.922 187.907 175.577 189.006 176.535 191.322 177.495 193.638 176.395 196.295 174.078 197.254 171.765 198.212 169.108 197.113 168.146 194.796 167.19 192.479 168.291 189.823 170.604 188.866M181.608 208.551C183.383 206.778 186.256 206.777 188.027 208.549 189.801 210.323 189.801 213.197 188.027 214.97 186.257 216.74 183.382 216.742 181.607 214.968 179.838 213.195 179.838 210.319 181.608 208.551M199.308 222.524C200.27 220.208 202.923 219.107 205.238 220.066 207.557 221.026 208.655 223.681 207.696 225.998 206.737 228.311 204.08 229.414 201.762 228.454 199.451 227.492 198.35 224.836 199.308 222.524M221.008 228.66C221.009 226.152 223.039 224.119 225.545 224.12 228.056 224.12 230.085 226.152 230.085 228.66 230.085 231.163 228.054 233.198 225.545 233.2 223.041 233.195 221.008 231.161 221.008 228.66M243.405 226.026C242.447 223.708 243.544 221.052 245.859 220.096 248.177 219.135 250.831 220.234 251.792 222.552 252.749 224.864 251.65 227.522 249.333 228.484 247.018 229.437 244.362 228.337 243.405 226.026M263.089 215.02C261.316 213.245 261.314 210.372 263.085 208.602 264.86 206.828 267.733 206.828 269.508 208.602 271.277 210.372 271.278 213.248 269.506 215.023 267.731 216.79 264.855 216.79 263.089 215.02M277.062 197.321C274.745 196.36 273.643 193.705 274.603 191.392 275.564 189.074 278.218 187.975 280.536 188.935 282.848 189.893 283.95 192.55 282.992 194.868 282.028 197.179 279.372 198.28 277.062 197.321M283.199 175.62C280.69 175.619 278.657 173.588 278.658 171.083 278.66 168.574 280.69 166.544 283.199 166.543 285.7 166.544 287.736 168.576 287.738 171.084 287.732 173.588 285.699 175.621 283.199 175.62M280.563 153.224C278.245 154.182 275.59 153.084 274.631 150.77 273.674 148.45 274.772 145.798 277.089 144.837 279.402 143.881 282.059 144.979 283.022 147.296 283.973 149.611 282.873 152.267 280.563 153.224M269.558 133.541C267.783 135.313 264.908 135.315 263.139 133.544 261.365 131.768 261.365 128.897 263.139 127.122 264.908 125.353 267.785 125.352 269.561 127.123 271.326 128.898 271.326 131.774 269.558 133.541M251.858 119.568C250.897 121.885 248.241 122.985 245.928 122.027 243.61 121.064 242.511 118.412 243.471 116.093 244.431 113.782 247.086 112.68 249.406 113.637 251.715 114.602 252.816 117.258 251.858 119.568"/>
    </g>
    <path fill="#312E36" d="M1363.97,486.088 L1335.71,409.1 L1335.71,407.904 L1366.18,486.088 L1363.97,486.088 Z M1361.26,486.088 L1335.71,411.749 L1335.71,409.824 L1363.7,486.088 L1361.26,486.088 Z M1358.55,486.088 L1335.71,414.108 L1335.71,412.517 L1361,486.088 L1358.55,486.088 Z M1355.31,484.453 L1335.71,417.654 L1335.71,414.934 L1358.25,485.989 C1357.28,485.474 1356.3,484.96 1355.31,484.453 L1355.31,484.453 Z M1355.66,499.85 L1343.22,499.85 L1348.68,492.296 C1348.74,492.213 1348.79,492.122 1348.83,492.031 C1351.28,493.148 1353.54,494.276 1355.66,495.415 L1355.66,499.85 Z M1328.24,499.85 L1321.29,490.77 L1322.83,482.327 C1331.17,484.951 1338.69,487.66 1345.22,490.443 L1345.29,490.805 L1338.74,499.85 L1328.24,499.85 Z M1200.68,499.85 L1200.68,483.542 L1198.68,477.465 L1198.45,477.465 L1209.67,461.955 C1209.68,461.942 1209.68,461.928 1209.69,461.916 C1209.77,461.81 1209.83,461.695 1209.89,461.581 C1209.92,461.519 1209.96,461.462 1209.99,461.398 C1210.04,461.28 1210.07,461.153 1210.11,461.027 C1210.13,460.961 1210.16,460.897 1210.17,460.828 C1210.19,460.722 1210.2,460.609 1210.21,460.499 C1210.22,460.406 1210.24,460.316 1210.24,460.222 C1210.24,460.213 1210.24,460.205 1210.24,460.196 C1210.24,460.084 1210.22,459.978 1210.21,459.868 C1210.2,459.791 1210.2,459.713 1210.19,459.635 L1210.18,459.597 L1210.18,459.588 L1209.85,457.841 C1251.12,464.375 1289.92,472.307 1319.35,481.249 L1317.59,490.91 C1317.5,491.412 1317.62,491.929 1317.93,492.334 L1323.68,499.85 L1200.68,499.85 Z M1178.09,477.465 L1167.18,463.196 L1201.37,463.196 L1191.04,477.465 L1178.09,477.465 Z M1169.66,483.542 L1169.66,499.85 L1063.09,499.85 L1063.09,441.083 C1092.82,443.178 1126.21,446.458 1159.78,450.725 L1158.16,459.659 C1158.14,459.736 1158.15,459.812 1158.14,459.889 C1158.13,459.991 1158.11,460.091 1158.11,460.196 C1158.11,460.212 1158.11,460.226 1158.11,460.241 C1158.11,460.335 1158.13,460.426 1158.14,460.519 C1158.15,460.632 1158.16,460.745 1158.19,460.853 C1158.2,460.933 1158.23,461.008 1158.26,461.086 C1158.29,461.202 1158.33,461.318 1158.38,461.428 C1158.41,461.501 1158.45,461.569 1158.49,461.64 C1158.55,461.746 1158.61,461.85 1158.68,461.948 C1158.7,461.971 1158.71,461.997 1158.73,462.019 L1171.33,478.494 L1169.66,483.542 Z M1179.17,319.029 L1179.17,323.675 L1101.41,427.53 C1098.24,427.241 1095.09,426.963 1091.96,426.695 L1179.17,319.029 Z M1183.71,352.759 L1200.31,439.869 C1189.82,438.142 1179.27,436.561 1168.72,435.117 L1183.71,352.759 Z M1189.27,349.869 L1188.22,344.388 L1244.12,448.108 C1241.6,447.567 1239.06,447.035 1236.52,446.515 L1189.27,349.869 Z M1190.99,358.911 L1189.44,350.801 L1236.21,446.453 C1233.59,445.918 1230.96,445.396 1228.32,444.883 L1190.99,358.911 Z M1193.74,373.353 L1191.2,360.03 L1228.02,444.825 C1225.34,444.306 1222.66,443.794 1219.97,443.296 L1193.74,373.353 Z M1194.74,378.588 L1194.02,374.803 L1219.68,443.244 C1217.35,442.813 1215.01,442.392 1212.66,441.977 L1194.74,378.588 Z M1195.28,381.405 L1212.39,441.929 C1210.47,441.589 1208.55,441.255 1206.62,440.926 L1195.28,381.405 Z M1165.74,451.492 C1178.41,453.146 1191.08,454.938 1203.55,456.859 L1203.61,457.196 L1164.7,457.196 L1165.74,451.492 Z M1170.29,392.968 L1162.77,434.317 C1161.64,434.168 1160.52,434.023 1159.39,433.878 L1170.29,392.968 Z M1176.52,358.727 L1170.85,389.911 L1159.14,433.845 C1156.23,433.468 1153.31,433.099 1150.41,432.742 L1176.52,358.727 Z M1178.61,347.286 L1176.81,357.178 L1150.15,432.711 C1146.88,432.309 1143.61,431.919 1140.35,431.542 L1178.61,347.286 Z M1179.17,339.66 L1179.17,344.16 L1178.79,346.277 L1140.09,431.511 C1136.78,431.129 1133.49,430.761 1130.2,430.403 L1179.17,339.66 Z M1179.17,333.968 L1179.17,339.134 L1129.93,430.374 C1126.76,430.03 1123.61,429.697 1120.46,429.374 L1179.17,333.968 Z M1110.4,428.372 C1107.49,428.091 1104.59,427.82 1101.7,427.556 L1179.17,324.092 L1179.17,327.723 L1110.4,428.372 Z M1179.17,328.166 L1179.17,333.491 L1120.19,429.346 C1117.01,429.02 1113.84,428.704 1110.69,428.399 L1179.17,328.166 Z M1188.17,339.543 L1252.47,449.941 C1249.8,449.34 1247.13,448.753 1244.44,448.176 L1188.17,343.777 L1188.17,339.543 Z M1188.17,335.04 L1261.2,451.969 C1258.42,451.305 1255.62,450.652 1252.8,450.015 L1188.17,339.046 L1188.17,335.04 Z M1188.17,331.247 L1269.93,454.108 C1267.16,453.407 1264.36,452.725 1261.55,452.052 L1188.17,334.568 L1188.17,331.247 Z M1188.17,327.261 L1278.06,456.223 C1275.49,455.537 1272.91,454.861 1270.3,454.2 L1188.17,330.796 L1188.17,327.261 Z M1188.17,323.726 L1283.15,452.75 L1279.65,456.645 C1279.25,456.537 1278.84,456.43 1278.44,456.323 L1188.17,326.825 L1188.17,323.726 Z M1286.41,457.175 L1285.53,458.26 C1283.67,457.738 1281.8,457.225 1279.92,456.717 L1283.3,452.955 L1286.41,457.175 Z M1330.27,400.682 L1330.27,403.029 L1286.57,456.975 L1283.47,452.765 L1330.27,400.682 Z M1329.05,427.908 L1321.43,469.802 C1320.25,469.368 1319.07,468.941 1317.88,468.516 L1329.05,427.908 Z M1330.27,418.973 L1330.27,421.192 L1329.56,425.123 L1317.64,468.431 C1316.36,467.971 1315.06,467.517 1313.76,467.066 L1330.27,418.973 Z M1330.27,415.366 L1330.27,418.204 L1313.53,466.984 C1311.82,466.395 1310.1,465.813 1308.37,465.238 L1330.27,415.366 Z M1330.27,412.253 L1330.27,414.745 L1308.13,465.159 C1306.31,464.554 1304.48,463.958 1302.63,463.37 L1330.27,412.253 Z M1330.27,408.937 L1330.27,411.727 L1302.38,463.293 C1300.67,462.749 1298.94,462.212 1297.21,461.682 L1330.27,408.937 Z M1330.27,405.896 L1330.27,408.466 L1296.96,461.606 C1295.34,461.113 1293.72,460.627 1292.08,460.146 L1330.27,405.896 Z M1287.65,458.865 C1287.03,458.688 1286.41,458.508 1285.79,458.333 L1286.56,457.383 L1287.65,458.865 Z M1286.72,457.183 L1330.27,403.426 L1330.27,405.462 L1291.83,460.071 C1290.57,459.703 1289.31,459.339 1288.04,458.978 L1286.72,457.183 Z M1333.01,426.382 L1342.95,478.543 C1337.16,475.944 1331.12,473.462 1324.88,471.09 L1333.01,426.382 Z M1348.8,481.246 C1348.2,480.961 1347.6,480.675 1346.99,480.393 L1339.62,441.715 L1348.8,481.246 Z M1338.44,435.539 L1336.1,423.228 L1351.85,482.716 C1350.94,482.268 1350.01,481.827 1349.08,481.385 L1338.44,435.539 Z M1335.71,418.543 L1355,484.299 C1354.06,483.819 1353.11,483.339 1352.15,482.866 L1335.71,420.782 L1335.71,418.543 Z M931.75,468.197 C930.155,468.086 927.8,467.927 924.729,467.741 L924.729,450.139 L931.75,466.527 L931.75,468.197 Z M923.229,467.65 C920.319,467.478 916.849,467.286 912.853,467.085 L906.539,454.968 L923.229,448.147 L923.229,467.65 Z M902.94,466.62 L902.94,456.439 L905.842,455.254 L911.984,467.041 C909.213,466.903 906.193,466.761 902.94,466.62 L902.94,466.62 Z M902.94,449.686 L905.493,454.585 L902.94,455.629 L902.94,449.686 Z M901.44,456.242 L884.77,463.055 L882.952,458.296 L901.44,448.268 L901.44,456.242 Z M901.44,466.556 C896.722,466.356 891.526,466.157 885.884,465.97 L885.038,463.756 L901.44,457.052 L901.44,466.556 Z M880.071,465.787 L884.344,464.04 L885.071,465.943 C883.44,465.89 881.774,465.838 880.071,465.787 L880.071,465.787 Z M879.152,460.356 L882.287,458.656 L884.076,463.339 L879.152,465.352 L879.152,460.356 Z M879.152,450.449 L882.017,457.949 L879.152,459.503 L879.152,450.449 Z M877.652,460.317 L868.154,465.468 C865.295,465.4 862.355,465.337 859.333,465.279 L859.052,464.12 L877.652,448.552 L877.652,460.317 Z M877.652,465.716 C875.066,465.642 872.404,465.571 869.66,465.504 L877.652,461.17 L877.652,465.716 Z M857.704,465.248 L858.411,464.656 L858.558,465.264 C858.275,465.258 857.988,465.254 857.704,465.248 L857.704,465.248 Z M855.363,465.206 L855.363,452.112 L858.213,463.843 L856.56,465.227 C856.161,465.22 855.764,465.213 855.363,465.206 L855.363,465.206 Z M853.863,465.181 C849.846,465.114 845.699,465.057 841.422,465.012 L853.863,449.01 L853.863,465.181 Z M831.574,464.929 L831.574,451.377 L835.503,464.957 C834.203,464.947 832.896,464.938 831.574,464.929 L831.574,464.929 Z M830.074,464.921 C827.079,464.905 824.031,464.894 820.927,464.89 L830.074,449.438 L830.074,464.921 Z M806.038,464.921 L806.038,449.438 L815.186,464.89 C812.082,464.894 809.033,464.905 806.038,464.921 L806.038,464.921 Z M804.538,464.929 C803.217,464.938 801.909,464.947 800.61,464.957 L804.538,451.377 L804.538,464.929 Z M782.25,465.181 L782.25,449.01 L794.691,465.012 C790.414,465.057 786.266,465.114 782.25,465.181 L782.25,465.181 Z M780.75,465.206 C780.348,465.213 779.952,465.22 779.553,465.227 L777.9,463.843 L780.75,452.112 L780.75,465.206 Z M777.554,465.264 L777.702,464.656 L778.409,465.248 C778.125,465.254 777.838,465.258 777.554,465.264 L777.554,465.264 Z M776.78,465.279 C773.758,465.337 770.818,465.4 767.959,465.468 L758.461,460.317 L758.461,448.552 L777.061,464.12 L776.78,465.279 Z M758.461,465.716 L758.461,461.17 L766.453,465.504 C763.709,465.571 761.047,465.642 758.461,465.716 L758.461,465.716 Z M756.961,459.503 L754.096,457.949 L756.961,450.449 L756.961,459.503 Z M756.961,465.352 L752.037,463.339 L753.826,458.656 L756.961,460.356 L756.961,465.352 Z M751.042,465.943 L751.769,464.04 L756.042,465.787 C754.339,465.838 752.673,465.89 751.042,465.943 L751.042,465.943 Z M734.673,466.556 L734.673,457.052 L751.075,463.756 L750.229,465.97 C744.587,466.157 739.391,466.356 734.673,466.556 L734.673,466.556 Z M734.673,448.268 L753.161,458.296 L751.343,463.055 L734.673,456.242 L734.673,448.268 Z M733.173,455.629 L730.619,454.585 L733.173,449.686 L733.173,455.629 Z M733.173,466.62 C729.92,466.761 726.9,466.903 724.129,467.041 L730.271,455.254 L733.173,456.439 L733.173,466.62 Z M712.884,467.65 L712.884,448.147 L729.574,454.968 L723.26,467.085 C719.263,467.286 715.794,467.478 712.884,467.65 L712.884,467.65 Z M711.384,467.741 C708.55,467.913 706.329,468.061 704.75,468.171 L704.75,465.625 L711.384,450.139 L711.384,467.741 Z M465.183,427.638 L463.065,427.638 L463.065,414.726 L465.183,414.726 L465.183,427.638 Z M461.826,427.638 L459.707,427.638 L459.707,414.726 L461.826,414.726 L461.826,427.638 Z M458.469,427.638 L456.35,427.638 L456.35,414.726 L458.469,414.726 L458.469,427.638 Z M455.112,427.638 L452.994,427.638 L452.994,414.726 L455.112,414.726 L455.112,427.638 Z M235.183,442.228 L233.065,442.228 L233.065,429.316 L235.183,429.316 L235.183,442.228 Z M231.826,442.228 L229.707,442.228 L229.707,429.316 L231.826,429.316 L231.826,442.228 Z M228.469,442.228 L226.35,442.228 L226.35,429.316 L228.469,429.316 L228.469,442.228 Z M225.112,442.228 L222.994,442.228 L222.994,429.316 L225.112,429.316 L225.112,442.228 Z M140.604,519.274 L138.17,519.274 L138.17,514.433 C139.315,514.074 140.146,513.782 140.604,513.614 L140.604,519.274 Z M137.775,513.317 C137.074,513.537 136.267,513.778 135.341,514.032 L135.341,511.784 C136.267,512.039 137.074,512.28 137.775,512.5 L137.775,513.317 Z M137.775,519.274 L135.341,519.274 L135.341,515.256 C136.248,515.01 137.065,514.773 137.775,514.555 L137.775,519.274 Z M134.946,514.138 C134.195,514.34 133.384,514.546 132.512,514.753 L132.512,511.065 C133.384,511.27 134.195,511.477 134.946,511.679 L134.946,514.138 Z M134.946,519.274 L132.512,519.274 L132.512,515.967 C133.379,515.766 134.191,515.562 134.946,515.362 L134.946,519.274 Z M132.117,514.843 C131.344,515.022 130.535,515.198 129.682,515.368 L129.682,510.449 C130.535,510.619 131.344,510.795 132.117,510.973 L132.117,514.843 Z M132.117,519.274 L129.682,519.274 L129.682,516.573 C130.532,516.407 131.344,516.233 132.117,516.057 L132.117,519.274 Z M129.288,515.443 C128.504,515.595 127.695,515.742 126.854,515.879 L126.854,509.938 C127.695,510.075 128.504,510.221 129.288,510.374 L129.288,515.443 Z M129.288,519.274 L126.854,519.274 L126.854,517.075 C127.692,516.941 128.505,516.798 129.288,516.649 L129.288,519.274 Z M126.459,515.942 C125.671,516.065 124.855,516.177 124.024,516.281 L124.024,509.536 C124.855,509.64 125.671,509.752 126.459,509.876 L126.459,515.942 Z M126.459,519.274 L124.024,519.274 L124.024,517.477 C124.856,517.375 125.669,517.261 126.459,517.139 L126.459,519.274 Z M123.63,516.33 C122.833,516.425 122.025,516.513 121.195,516.584 L121.195,509.233 C122.025,509.304 122.833,509.392 123.63,509.487 L123.63,516.33 Z M123.63,519.274 L121.195,519.274 L121.195,517.769 C122.022,517.698 122.834,517.616 123.63,517.523 L123.63,519.274 Z M120.801,516.613 C120.003,516.677 119.19,516.727 118.366,516.764 L118.366,509.052 C119.19,509.09 120.003,509.14 120.801,509.204 L120.801,516.613 Z M120.801,519.274 L118.366,519.274 L118.366,517.953 C119.19,517.916 120.002,517.865 120.801,517.801 L120.801,519.274 Z M117.971,516.782 C117.169,516.815 116.359,516.836 115.537,516.838 L115.537,508.979 C116.359,508.981 117.169,509.003 117.971,509.035 L117.971,516.782 Z M117.971,519.274 L115.537,519.274 L115.537,518.022 C116.357,518.02 117.17,518.003 117.971,517.971 L117.971,519.274 Z M138.17,512.624 C138.487,512.725 138.784,512.821 139.042,512.908 C138.784,512.995 138.487,513.092 138.17,513.193 L138.17,512.624 Z M115.142,516.838 C114.32,516.836 113.511,516.815 112.708,516.782 L112.708,509.035 C113.511,509.003 114.32,508.981 115.142,508.979 L115.142,516.838 Z M115.142,519.274 L112.708,519.274 L112.708,517.971 C113.509,518.003 114.322,518.02 115.142,518.022 L115.142,519.274 Z M112.313,516.764 C111.49,516.727 110.677,516.677 109.879,516.613 L109.879,509.204 C110.677,509.14 111.49,509.09 112.313,509.052 L112.313,516.764 Z M112.313,519.274 L109.879,519.274 L109.879,517.801 C110.677,517.865 111.49,517.916 112.313,517.953 L112.313,519.274 Z M109.484,516.584 C108.655,516.513 107.846,516.425 107.05,516.33 L107.05,509.487 C107.846,509.392 108.655,509.304 109.484,509.233 L109.484,516.584 Z M109.484,519.274 L107.05,519.274 L107.05,517.523 C107.845,517.616 108.657,517.698 109.484,517.769 L109.484,519.274 Z M106.655,516.281 C105.824,516.177 105.009,516.065 104.22,515.942 L104.22,509.876 C105.009,509.752 105.824,509.64 106.655,509.536 L106.655,516.281 Z M106.655,519.274 L104.22,519.274 L104.22,517.139 C105.011,517.261 105.823,517.375 106.655,517.477 L106.655,519.274 Z M103.826,515.879 C102.984,515.742 102.176,515.595 101.391,515.443 L101.391,510.374 C102.176,510.221 102.984,510.075 103.826,509.938 L103.826,515.879 Z M103.826,519.274 L101.391,519.274 L101.391,516.649 C102.175,516.798 102.988,516.941 103.826,517.075 L103.826,519.274 Z M100.997,515.368 C100.144,515.198 99.3352,515.022 98.5622,514.843 L98.5622,510.973 C99.3352,510.795 100.144,510.619 100.997,510.449 L100.997,515.368 Z M100.997,519.274 L98.5622,519.274 L98.5622,516.057 C99.3362,516.233 100.147,516.407 100.997,516.573 L100.997,519.274 Z M98.1682,514.753 C97.2962,514.546 96.4842,514.34 95.7332,514.138 L95.7332,511.679 C96.4842,511.477 97.2962,511.27 98.1682,511.065 L98.1682,514.753 Z M98.1682,519.274 L95.7332,519.274 L95.7332,515.362 C96.4882,515.562 97.3002,515.766 98.1682,515.967 L98.1682,519.274 Z M95.3392,514.032 C94.4122,513.778 93.6052,513.537 92.9042,513.317 L92.9042,512.5 C93.6052,512.28 94.4122,512.039 95.3392,511.784 L95.3392,514.032 Z M95.3392,519.274 L92.9042,519.274 L92.9042,514.555 C93.6142,514.773 94.4312,515.01 95.3392,515.256 L95.3392,519.274 Z M92.5102,513.193 C92.1922,513.092 91.8952,512.995 91.6372,512.908 C91.8952,512.821 92.1922,512.725 92.5102,512.624 L92.5102,513.193 Z M92.5102,519.274 L90.0752,519.274 L90.0752,513.613 C90.5332,513.782 91.3652,514.074 92.5102,514.433 L92.5102,519.274 Z M1366.44,486.088 L1335.71,407.215 L1335.71,389.118 C1335.71,388.118 1334.9,387.307 1333.9,387.307 C1333.56,387.307 1333.26,387.403 1332.99,387.559 C1332.72,387.403 1332.42,387.307 1332.08,387.307 C1331.08,387.307 1330.27,388.118 1330.27,389.118 L1330.27,400.309 L1283.32,452.56 L1188.17,323.304 L1188.17,291.025 C1188.17,289.368 1186.83,288.025 1185.17,288.025 C1184.63,288.025 1184.12,288.183 1183.67,288.441 C1183.23,288.183 1182.72,288.025 1182.17,288.025 C1180.52,288.025 1179.17,289.368 1179.17,291.025 L1179.17,318.631 L1091.66,426.67 C1081.92,425.837 1072.37,425.098 1063.09,424.445 L1063.09,364.496 L1058.45,364.855 L1058.45,347.434 L1028.07,357.608 L1028.07,351.028 L997.695,361.202 L997.695,369.552 L989.11,370.215 L989.11,499.85 L984.078,499.85 L979.068,348.85 L990.406,348.85 L994.406,346.685 L994.406,343.742 L992.406,343.742 L996.406,341.577 L996.406,338.634 L994.406,338.634 L998.406,336.469 L998.406,333.526 L978.426,329.504 L977.771,309.758 L979.142,309.758 L1003.14,302.533 L1003.14,296.259 L977.36,296.259 L977.213,282.809 L985.334,282.809 L985.334,280.951 L977.192,280.951 L977.093,271.83 L989.334,271.83 L989.334,269.972 L977.072,269.972 L976.972,260.851 L988.334,260.851 L988.334,258.993 L976.952,258.993 L976.852,249.872 L987.334,249.872 L987.334,248.014 L976.832,248.014 L976.732,238.893 L986.334,238.893 L986.334,237.035 L976.711,237.035 L976.611,227.914 L985.334,227.914 L985.334,226.056 L976.591,226.056 L976.209,191.163 L980.334,191.163 L980.334,189.305 L976.188,189.305 L975.8,153.83 L978.334,153.83 L978.334,151.972 L975.779,151.972 L975.36,113.715 L972.816,113.715 L972.397,151.972 L969.842,151.972 L969.842,153.83 L972.377,153.83 L971.988,189.305 L967.842,189.305 L967.842,191.163 L971.968,191.163 L971.585,226.056 L962.842,226.056 L962.842,227.914 L971.565,227.914 L971.465,237.035 L961.842,237.035 L961.842,238.893 L971.445,238.893 L971.344,248.014 L960.842,248.014 L960.842,249.872 L971.324,249.872 L971.224,258.993 L959.842,258.993 L959.842,260.851 L971.204,260.851 L971.104,269.972 L958.842,269.972 L958.842,271.83 L971.084,271.83 L970.984,280.951 L962.842,280.951 L962.842,282.809 L970.964,282.809 L970.816,296.259 L945.033,296.259 L945.033,302.533 L969.033,309.758 L971.341,309.758 L970.593,329.5 L969.769,329.5 L949.769,333.526 L949.769,336.469 L953.769,338.634 L951.769,338.634 L951.769,341.577 L955.769,343.742 L953.769,343.742 L953.769,346.685 L957.769,348.85 L969.859,348.85 L964.133,499.85 L939.229,499.85 L939.229,473.116 L938.25,472.189 L938.25,447.435 C938.25,447.021 937.914,446.685 937.5,446.685 C937.086,446.685 936.75,447.021 936.75,447.435 L936.75,470.767 L934.229,468.38 C934.229,468.38 933.922,468.355 933.33,468.311 L933.25,468.125 L933.25,447.435 C933.25,447.021 932.914,446.685 932.5,446.685 C932.086,446.685 931.75,447.021 931.75,447.435 L931.75,464.623 L924.729,448.234 L924.729,445.356 C924.729,444.942 924.393,444.606 923.979,444.606 C923.565,444.606 923.229,444.942 923.229,445.356 L923.229,447.337 L906.191,454.3 L902.94,448.063 L902.94,445.356 C902.94,444.942 902.604,444.606 902.19,444.606 C901.776,444.606 901.44,444.942 901.44,445.356 L901.44,447.416 L882.682,457.588 L879.152,448.348 L879.152,445.356 C879.152,444.942 878.816,444.606 878.402,444.606 C877.988,444.606 877.652,444.942 877.652,445.356 L877.652,447.574 L858.854,463.307 L855.363,448.935 L855.363,445.356 C855.363,444.942 855.027,444.606 854.613,444.606 C854.199,444.606 853.863,444.942 853.863,445.356 L853.863,447.789 L840.481,465.002 C839.097,464.988 837.696,464.975 836.286,464.963 L831.574,448.678 L831.574,445.356 C831.574,444.942 831.239,444.606 830.824,444.606 C830.41,444.606 830.074,444.942 830.074,445.356 L830.074,447.966 L820.055,464.89 C819.39,464.889 818.727,464.888 818.056,464.888 C817.386,464.888 816.723,464.889 816.057,464.89 L806.038,447.966 L806.038,445.356 C806.038,444.942 805.702,444.606 805.288,444.606 C804.874,444.606 804.538,444.942 804.538,445.356 L804.538,448.678 L799.827,464.963 C798.417,464.975 797.016,464.988 795.632,465.002 L782.25,447.789 L782.25,445.356 C782.25,444.942 781.914,444.606 781.5,444.606 C781.086,444.606 780.75,444.942 780.75,445.356 L780.75,448.935 L777.259,463.307 L758.461,447.574 L758.461,445.356 C758.461,444.942 758.125,444.606 757.711,444.606 C757.297,444.606 756.961,444.942 756.961,445.356 L756.961,448.348 L753.431,457.588 L734.673,447.416 L734.673,445.356 C734.673,444.942 734.337,444.606 733.923,444.606 C733.509,444.606 733.173,444.942 733.173,445.356 L733.173,448.063 L729.922,454.3 L712.884,447.337 L712.884,445.356 C712.884,444.942 712.548,444.606 712.134,444.606 C711.72,444.606 711.384,444.942 711.384,445.356 L711.384,448.234 L704.75,463.72 L704.75,447.435 C704.75,447.021 704.414,446.685 704,446.685 C703.586,446.685 703.25,447.021 703.25,447.435 L703.25,467.222 L702.783,468.311 C702.191,468.355 701.884,468.38 701.884,468.38 L699.75,470.401 L699.75,447.435 C699.75,447.021 699.414,446.685 699,446.685 C698.586,446.685 698.25,447.021 698.25,447.435 L698.25,471.822 L696.884,473.116 L696.884,505.775 L667.45,505.775 L667.45,455.176 C667.45,455.176 666.493,455.553 664.644,456.074 L664.644,440.13 C664.644,440.13 663.537,440.567 661.4,441.134 L661.4,414.482 C661.4,414.482 660.059,414.997 657.507,415.484 L657.507,381.782 C657.507,381.782 649.395,394.639 637.851,393.862 C626.306,393.086 624.735,389.897 624.735,389.897 L621.223,411.122 C616.501,408.902 615.538,406.943 615.538,406.943 L607.58,439.458 C601.366,437.553 598.37,435.735 598.37,435.735 L598.37,452.547 C595.086,451.243 593.487,450.271 593.487,450.271 L593.487,494.213 L580.403,494.213 L580.403,492.173 L578.403,492.173 L578.403,488.901 L576.403,488.901 L576.403,484.63 C576.403,480.57 571.466,477.168 565.116,476.714 L565.116,473.948 L564.253,473.948 L564.253,464.907 L559,464.907 L559,467.619 L563.102,467.619 L563.102,473.948 L562.24,473.948 L562.24,476.714 C555.89,477.167 550.952,480.57 550.952,484.63 L550.952,488.901 L548.952,488.901 L548.952,492.173 L546.952,492.173 L546.952,494.213 L536.166,494.213 L536.166,491.305 L532,491.305 L532,489.638 L529.833,489.638 L529.833,486.765 L526.833,486.765 L526.833,485.472 L523.166,485.472 L517.166,480.645 L515.392,480.645 L515.392,476.66 L513.997,476.66 L513.997,468.096 L518.091,468.096 L518.091,465.27 L513.997,465.27 L513.997,464.765 L513.376,464.765 L513.376,476.66 L511.981,476.66 L511.981,480.645 L496.329,480.645 L496.329,478.924 L492.918,478.924 L492.918,480.645 L475.166,480.645 L475.166,478.221 L469.505,478.221 L469.505,445.638 L467.422,445.638 L467.422,427.638 L466.422,427.638 L466.422,414.727 L467.422,414.727 L467.422,412.137 L466.422,412.137 L466.422,403.056 C466.422,399.413 463.763,396.399 460.281,395.828 L460.281,394.268 L462.289,394.268 L462.289,393.121 L459.399,393.121 L459.399,374.877 L463.492,374.877 L463.492,372.05 L459.399,372.05 L459.399,371.546 L458.778,371.546 L458.778,393.121 L455.888,393.121 L455.888,394.268 L457.896,394.268 L457.896,395.828 C454.414,396.399 451.755,399.413 451.755,403.056 L451.755,412.137 L450.755,412.137 L450.755,414.727 L451.755,414.727 L451.755,427.638 L450.755,427.638 L450.755,445.638 L448.672,445.638 L448.672,478.221 L445.871,478.221 L445.871,470.61 L443.871,467.294 L438.871,467.294 L438.871,462.264 L438.038,462.264 L438.038,458.901 L437.205,458.901 L437.205,456.122 L430.602,456.122 L430.602,458.901 L429.769,458.901 L429.769,462.264 L428.936,462.264 L428.936,467.294 L355.722,467.294 L355.722,440.098 L356.722,440.098 L356.722,437.624 L354.722,437.624 L354.722,422.447 L355.722,422.447 L355.722,420.136 L353.722,420.136 L353.722,417.939 L355.722,417.939 L355.722,415.629 L353.722,415.629 L353.722,413.431 L350.444,413.431 L350.444,405.784 L349.444,405.784 L349.444,403.056 L348.444,403.056 L348.444,400.175 L347.444,400.175 L347.444,394.879 L348.646,394.879 L348.646,393.135 L347.444,393.135 L347.444,386.901 L349.146,386.901 L349.146,385.681 L347.444,385.681 L347.444,376.958 L347.187,376.958 L347.187,372.701 L346.675,372.701 L346.675,376.958 L346.418,376.958 L346.418,383.152 L344.925,383.152 L344.925,373.596 L343.944,373.596 L343.944,370.355 L342.709,370.355 L342.709,346.552 L341.68,346.552 L341.68,370.355 L340.446,370.355 L340.446,373.596 L339.465,373.596 L339.465,383.152 L337.971,383.152 L337.971,376.958 L337.715,376.958 L337.715,372.701 L337.203,372.701 L337.203,376.958 L336.946,376.958 L336.946,385.681 L335.243,385.681 L335.243,386.901 L336.946,386.901 L336.946,393.135 L335.743,393.135 L335.743,394.879 L336.946,394.879 L336.946,400.175 L335.946,400.175 L335.946,403.056 L334.946,403.056 L334.946,405.784 L333.946,405.784 L333.946,413.431 L330.667,413.431 L330.667,415.629 L328.667,415.629 L328.667,417.939 L330.667,417.939 L330.667,420.136 L328.667,420.136 L328.667,422.447 L329.667,422.447 L329.667,437.624 L327.667,437.624 L327.667,440.098 L328.667,440.098 L328.667,467.294 L257.272,467.294 L257.272,462.264 L256.439,462.264 L256.439,458.901 L255.606,458.901 L255.606,456.122 L249.004,456.122 L249.004,458.901 L248.171,458.901 L248.171,462.264 L247.338,462.264 L247.338,467.294 L243.338,467.294 L241.338,470.61 L241.338,476.835 L239.505,476.835 L239.505,460.228 L237.422,460.228 L237.422,442.228 L236.422,442.228 L236.422,429.317 L237.422,429.317 L237.422,426.727 L236.422,426.727 L236.422,417.646 C236.422,414.003 233.763,410.989 230.281,410.418 L230.281,408.858 L232.289,408.858 L232.289,407.711 L229.399,407.711 L229.399,389.467 L233.492,389.467 L233.492,386.64 L229.399,386.64 L229.399,386.135 L228.778,386.135 L228.778,407.711 L225.888,407.711 L225.888,408.858 L227.896,408.858 L227.896,410.418 C224.414,410.989 221.755,414.003 221.755,417.646 L221.755,426.727 L220.755,426.727 L220.755,429.317 L221.755,429.317 L221.755,442.228 L220.755,442.228 L220.755,460.228 L218.672,460.228 L218.672,478.845 L205.216,478.845 L189.568,501.223 L189.568,492.882 L188.568,492.882 L188.568,479.884 L189.568,479.884 L189.568,478.086 L188.568,478.086 L188.568,463.011 L189.568,463.011 L189.568,461.212 L188.568,461.212 L188.568,454.137 L189.568,454.137 L189.568,452.338 L188.568,452.338 L188.568,444.264 L186.568,444.264 L186.568,432.865 L184.068,432.865 L181.068,396.217 L180.091,396.217 L177.091,432.865 L174.591,432.865 L174.591,444.264 L172.591,444.264 L172.591,452.338 L171.591,452.338 L171.591,454.137 L172.591,454.137 L172.591,461.212 L171.591,461.212 L171.591,463.011 L172.591,463.011 L172.591,478.086 L171.591,478.086 L171.591,479.884 L172.591,479.884 L172.591,491.865 L166.109,485.692 L166.097,485.692 L166.097,478.466 L164.038,478.466 L164.038,481.047 L162.625,481.047 L162.625,479.48 L156.848,479.48 L156.848,481.047 L154.709,481.047 L154.709,479.48 L152.393,479.48 L152.393,481.047 L143.973,481.047 L143.973,478.086 L142.253,478.086 L142.253,485.692 L139.774,485.692 L139.774,486.937 L140.802,486.937 L140.802,487.726 L139.774,487.726 L139.774,488.971 L140.802,488.971 L140.802,489.76 L139.774,489.76 L139.774,491.005 L140.802,491.005 L140.802,491.794 L139.774,491.794 L139.774,493.039 L140.802,493.039 L140.802,493.828 L139.774,493.828 L139.774,495.073 L140.802,495.073 L140.802,512.276 C139.169,511.665 128.313,507.793 115.34,507.793 C102.38,507.793 91.5332,511.656 89.8832,512.274 L89.8832,495.073 L90.9112,495.073 L90.9112,493.828 L89.8832,493.828 L89.8832,493.039 L90.9112,493.039 L90.9112,491.794 L89.8832,491.794 L89.8832,491.005 L90.9112,491.005 L90.9112,489.76 L89.8832,489.76 L89.8832,488.971 L90.9112,488.971 L90.9112,487.726 L89.8832,487.726 L89.8832,486.937 L90.9112,486.937 L90.9112,485.692 L88.4322,485.692 L88.4322,478.086 L86.7112,478.086 L86.7112,481.047 L78.2922,481.047 L78.2922,479.48 L75.9752,479.48 L75.9752,481.047 L73.8362,481.047 L73.8362,479.48 L68.0602,479.48 L68.0602,481.047 L66.6462,481.047 L66.6462,478.466 L64.5882,478.466 L64.5882,485.692 L64.5752,485.692 L57.5232,492.409 L57.5232,502.418 L52.2272,502.418 L52.2272,499.499 L53.0612,499.499 L53.0612,497.45 L51.7932,497.45 L49.2912,494.286 L39.4562,494.286 L39.4562,491.075 L38.6222,491.075 L38.6222,486.91 L37.8062,486.91 L37.8062,491.075 L37.7882,491.075 L32.7842,485.695 L31.0442,485.695 L31.0442,481.894 L28.8562,481.894 L28.8562,471.391 L28.0592,471.391 L28.0592,481.894 L25.8712,481.894 L25.8712,485.695 L24.1312,485.695 L19.1272,491.075 L19.1082,491.075 L19.1082,486.91 L18.2932,486.91 L18.2932,491.075 L17.4592,491.075 L17.4592,494.286 L7.6252,494.286 L5.1232,497.45 L3.8542,497.45 L3.8542,499.499 L4.6882,499.499 L4.6882,502.418 L0.0002,502.418 L0.0002,538.153 L89.8832,538.153 L89.8832,520.456 L140.802,520.456 L140.802,538.153 L1400,538.153 L1400,486.088 L1366.44,486.088 Z" opacity=".652"/>
    <path fill="#3B3741" d="M1363.82409,630 L1336,610.305945 L1336,610 L1366,630 L1363.82409,630 Z M1361.55913,630 L1336,611.479584 L1336,611 L1364,630 L1361.55913,630 Z M1358.57809,630 L1336,611.410882 L1336,611 L1361,630 L1358.57809,630 Z M1355,629.610893 L1335,612.689044 L1335,612 L1358,630 C1357.0102,629.869538 1356.0102,629.739329 1355,629.610893 L1355,629.610893 Z M1355,633 L1343,633 L1348.26688,631.067784 C1348.32476,631.046553 1348.37299,631.023277 1348.41158,631 C1350.77492,631.285714 1352.95498,631.574242 1355,631.865584 L1355,633 Z M1327.95,633 L1321,630.409119 L1322.54,628 C1330.88,628.74873 1338.4,629.521714 1344.93,630.315814 L1345,630.419106 L1338.45,633 L1327.95,633 Z M1201.2259,633 L1201.2259,628.729772 L1199.22958,627.138518 L1199,627.138518 L1210.19939,623.077245 C1210.20937,623.073841 1210.20937,623.070175 1210.21936,623.067033 C1210.29921,623.039277 1210.3591,623.009165 1210.41899,622.979314 C1210.44893,622.963079 1210.48886,622.948154 1210.51881,622.931396 C1210.56871,622.900498 1210.59866,622.867243 1210.63859,622.83425 C1210.65855,622.816968 1210.68849,622.800209 1210.69847,622.782142 C1210.71844,622.754386 1210.72842,622.724797 1210.7384,622.695994 C1210.74838,622.671642 1210.76835,622.648075 1210.76835,622.623462 C1210.76835,622.621105 1210.76835,622.61901 1210.76835,622.616654 C1210.76835,622.587327 1210.74838,622.559571 1210.7384,622.530767 C1210.72842,622.510605 1210.72842,622.490181 1210.71844,622.469756 L1210.70846,622.459806 L1210.70846,622.45745 L1210.37906,622 C1251.57327,623.710919 1290.302,625.787903 1319.67795,628.129353 L1317.92119,630.659073 C1317.83135,630.790521 1317.95113,630.925897 1318.26056,631.031946 L1324,633 L1201.2259,633 Z M1177.84937,628 L1167,624 L1201,624 L1190.72741,628 L1177.84937,628 Z M1169.3337,628.83746 L1169.3337,633 L1063,633 L1063,618 C1092.66408,618.534739 1125.98004,619.371943 1159.47561,620.461075 L1157.8592,622.741437 C1157.83925,622.76109 1157.84922,622.780489 1157.83925,622.800143 C1157.82927,622.826178 1157.80931,622.851702 1157.80931,622.878503 C1157.80931,622.882587 1157.80931,622.886161 1157.80931,622.889989 C1157.80931,622.913982 1157.82927,622.93721 1157.83925,622.960947 C1157.84922,622.98979 1157.8592,623.018633 1157.88914,623.046199 C1157.89911,623.066619 1157.92905,623.085762 1157.95898,623.105672 C1157.98891,623.13528 1158.02882,623.164888 1158.07871,623.192965 C1158.10865,623.211598 1158.14856,623.228955 1158.18847,623.247077 C1158.24834,623.274133 1158.3082,623.300679 1158.37805,623.325693 C1158.398,623.331564 1158.40798,623.3382 1158.42794,623.343815 L1171,627.548982 L1169.3337,628.83746 Z M1179,586 L1179,587.198957 L1101.42724,614 C1098.26488,613.92542 1095.12246,613.853679 1092,613.784518 L1179,586 Z M1184.18455,595 L1201,618 C1190.37385,617.544013 1179.68693,617.126576 1169,616.745311 L1184.18455,595 Z M1189.05188,594.426793 L1188,593 L1244,620 C1241.47549,619.859169 1238.93095,619.720681 1236.3864,619.585316 L1189.05188,594.426793 Z M1190.55762,597.119663 L1189,595 L1236,620 C1233.36712,619.86017 1230.72418,619.723738 1228.0712,619.589658 L1190.55762,597.119663 Z M1193.55242,600.456642 L1191,597 L1228,619 C1225.3069,618.865346 1222.6138,618.732508 1219.91065,618.603302 L1193.55242,600.456642 Z M1194.72954,601.940153 L1194,601 L1220,618 C1217.63913,617.892944 1215.26812,617.788372 1212.88698,617.685291 L1194.72954,601.940153 Z M1195,603 L1212,618 C1210.09234,617.915736 1208.18469,617.832959 1206.2671,617.751421 L1195,603 Z M1166.04241,621 C1178.74171,621.289972 1191.44102,621.604137 1203.93986,621.940919 L1204,622 L1165,622 L1166.04241,621 Z M1170,606 L1162.41101,617 C1161.27064,616.960362 1160.14037,616.921788 1159,616.883214 L1170,606 Z M1176,597 L1170.35389,604.887537 L1158.69322,616 C1155.79548,615.904643 1152.88778,615.81131 1150,615.721012 L1176,597 Z M1178,594 L1176.21223,596.547545 L1149.7334,616 C1146.48562,615.896471 1143.23785,615.796032 1140,615.698941 L1178,594 Z M1179,593 L1179,594.126825 L1178.61977,594.656934 L1139.89606,616 C1136.58403,615.904345 1133.29202,615.812196 1130,615.722551 L1179,593 Z M1179,590 L1179,591.339647 L1129.51678,615 C1126.33112,614.910794 1123.16556,614.82444 1120,614.74068 L1179,590 Z M1110.64722,615 C1107.75487,614.927244 1104.87247,614.857077 1102,614.788723 L1179,588 L1179,588.940132 L1110.64722,615 Z M1179,589 L1179,590.368353 L1120.43341,615 C1117.2757,614.916229 1114.12792,614.835027 1111,614.756652 L1179,589 Z M1188,592 L1252,621 C1249.34246,620.842126 1246.68491,620.687929 1244.00747,620.536359 L1188,593.112212 L1188,592 Z M1188,591 L1261,621 C1258.22114,620.82964 1255.42229,620.662103 1252.60345,620.49867 L1188,592.027803 L1188,591 Z M1188,590 L1270,621 C1267.22187,620.823125 1264.41365,620.651045 1261.5954,620.481235 L1188,590.837947 L1188,590 Z M1188,589 L1278,622 C1275.42686,621.82446 1272.8437,621.651479 1270.2305,621.482336 L1188,589.904569 L1188,589 Z M1188,588 L1283,621.003679 L1279.49926,622 C1279.09918,621.972374 1278.68909,621.945004 1278.28901,621.917634 L1188,588.792708 L1188,588 Z M1286,621.795476 L1285.18644,622 C1283.46687,621.901602 1281.73806,621.804901 1280,621.709142 L1283.12481,621 L1286,621.795476 Z M1330,608 L1330,608.625389 L1286.11325,623 L1283,621.878191 L1330,608 Z M1329,614 L1321.49597,625 C1320.33393,624.886046 1319.17189,624.773929 1318,624.662338 L1329,614 Z M1331,612 L1331,612.583263 L1330.26893,613.616523 L1317.99515,625 C1316.67717,624.879089 1315.33858,624.759756 1314,624.641211 L1331,612 Z M1330,612 L1330,612.714751 L1313.18356,625 C1311.46575,624.85166 1309.7379,624.705083 1308,624.56027 L1330,612 Z M1330,611 L1330,611.612331 L1307.57164,624 C1305.72793,623.85134 1303.8741,623.704892 1302,623.560409 L1330,611 Z M1330,610 L1330,610.718596 L1302.16062,624 C1300.45372,623.859887 1298.72686,623.721576 1297,623.585069 L1330,610 Z M1330,609 L1330,609.691976 L1296.85572,624 C1295.24378,623.867259 1293.63184,623.736403 1292,623.606893 L1330,609 Z M1288,623 C1287.33333,622.880567 1286.66667,622.759109 1286,622.641026 L1286.82796,622 L1288,623 Z M1286,622.235237 L1330,608 L1330,608.539147 L1291.1628,623 C1289.88978,622.902551 1288.61676,622.806161 1287.33364,622.710566 L1286,622.235237 Z M1333.09851,615 L1343,628 C1337.23243,627.352256 1331.21583,626.733671 1325,626.142501 L1333.09851,615 Z M1349,628 C1348.41176,627.927905 1347.82353,627.855556 1347.22549,627.78422 L1340,618 L1349,628 Z M1338.37714,617.10424 L1336,614 L1352,629 C1351.07556,628.887036 1350.13079,628.775837 1349.18603,628.664386 L1338.37714,617.10424 Z M1336,612 L1355,629 C1354.07413,628.875905 1353.13841,628.75181 1352.19285,628.629524 L1336,612.578852 L1336,612 Z M932,625 C930.409771,624.969266 928.061815,624.925241 925,624.87374 L925,620 L932,624.537601 L932,625 Z M923,625 C920.03595,624.955904 916.501498,624.906681 912.431276,624.85515 L906,621.748705 L923,620 L923,625 Z M903,624.892848 L903,622.301603 L905.887881,622 L912,625 C909.242481,624.964877 906.237174,624.928735 903,624.892848 L903,624.892848 Z M903,621 L906,621.824331 L903,622 L903,621 Z M901,622.15703 L884.770013,624 L883,622.712653 L901,620 L901,622.15703 Z M901,625 C896.397634,624.936869 891.328984,624.874053 885.825265,624.815025 L885,624.116162 L901,622 L901,625 Z M880,624.918024 L884.273,624 L885,625 C883.369,624.972149 881.703,624.944824 880,624.918024 L880,624.918024 Z M879,622.507766 L882.183387,622 L884,623.398746 L879,624 L879,622.507766 Z M879,620 L882,621.656726 L879,622 L879,620 Z M878,623.477477 L868.297742,625 C865.377258,624.979901 862.374032,624.961279 859.287043,624.944136 L859,624.601561 L878,620 L878,623.477477 Z M878,624 C875.411411,623.983722 872.746747,623.968104 870,623.953366 L878,623 L878,624 Z M858.073,624.073961 L858.78,623.92193 L858.927,624.07807 C858.644,624.076529 858.357,624.075502 858.073,624.073961 L858.073,624.073961 Z M855,623.995196 L855,621 L858,623.683416 L856.26,624 C855.84,623.998399 855.422105,623.996798 855,623.995196 L855,623.995196 Z M854,624 C850.125392,623.983427 846.125392,623.969328 842,623.958197 L854,620 L854,624 Z M832,623.993814 L832,621 L836,624 C834.676508,623.997791 833.34589,623.995803 832,623.993814 L832,623.993814 Z M830,624 C827.053132,623.995866 824.054116,623.993025 821,623.991991 L830,620 L830,624 Z M806,624 L806,620 L815,623.991991 C811.946218,623.993025 808.946546,623.995866 806,624 L806,624 Z M805,623.993814 C803.654786,623.995803 802.322811,623.997791 801,624 L805,621 L805,623.993814 Z M782,624 L782,620 L794,623.958197 C789.874608,623.969328 785.873644,623.983427 782,624 L782,624 Z M781,623.995196 C780.576842,623.996798 780.16,623.998399 779.74,624 L778,623.683416 L781,621 L781,623.995196 Z M777.0725,624.07807 L777.2205,623.92193 L777.9275,624.073961 C777.6435,624.075502 777.3565,624.076529 777.0725,624.07807 L777.0725,624.07807 Z M776.712957,624.944136 C773.625968,624.961279 770.622742,624.979901 767.702258,625 L758,623.477477 L758,620 L777,624.601561 L776.712957,624.944136 Z M758,624 L758,623 L766,623.953366 C763.253253,623.968104 760.588589,623.983722 758,624 L758,624 Z M757,622 L754,621.656726 L757,620 L757,622 Z M757,624 L752,623.398746 L753.816613,622 L757,622.507766 L757,624 Z M751,625 L751.727,624 L756,624.918024 C754.297,624.944824 752.631,624.972149 751,625 L751,625 Z M735,625 L735,622 L751,624.116162 L750.174735,624.815025 C744.671016,624.874053 739.602366,624.936869 735,625 L735,625 Z M735,620 L753,622.712653 L751.229987,624 L735,622.15703 L735,620 Z M733,622 L730,621.824331 L733,621 L733,622 Z M733,624.892848 C729.762826,624.928735 726.757519,624.964877 724,625 L730.112119,622 L733,622.301603 L733,624.892848 Z M713,625 L713,620 L730,621.748705 L723.568724,624.85515 C719.497484,624.906681 715.96405,624.955904 713,625 L713,625 Z M712,624.880768 C709.009647,624.928461 706.666114,624.969499 705,625 L705,624.294033 L712,620 L712,624.880768 Z M465,614 L463,614 L463,611 L465,611 L465,614 Z M462,614 L460,614 L460,611 L462,611 L462,614 Z M458,614 L456,614 L456,611 L458,611 L458,614 Z M455,614 L453,614 L453,611 L455,611 L455,614 Z M235,618 L233,618 L233,615 L235,615 L235,618 Z M232,618 L230,618 L230,615 L232,615 L232,618 Z M228,618 L226,618 L226,615 L228,615 L228,618 Z M225,618 L223,618 L223,615 L225,615 L225,618 Z M140,638 L138,638 L138,637.1447 C138.940838,637.081272 139.623665,637.029682 140,637 L140,638 Z M138,636.68194 C137.423993,636.779804 136.760887,636.887011 136,637 L136,636 C136.760887,636.113434 137.423993,636.220641 138,636.318505 L138,636.68194 Z M138,638 L136,638 L136,637.148548 C136.745275,637.096419 137.416598,637.046196 138,637 L138,638 Z M135,636.833243 C134.382909,636.888015 133.716516,636.943872 133,637 L133,636 C133.716516,636.055586 134.382909,636.111714 135,636.166486 L135,636.833243 Z M135,638 L133,638 L133,637.154652 C133.712408,637.103272 134.379622,637.051125 135,637 L135,638 Z M132,636.893271 C131.365092,636.929661 130.700616,636.96544 130,637 L130,636 C130.700616,636.03456 131.365092,636.070339 132,636.106526 L132,636.893271 Z M132,639 L130,639 L130,638.160398 C130.698152,638.108797 131.365092,638.054709 132,638 L132,639 Z M129,636.926612 C128.355793,636.952197 127.691044,636.97694 127,637 L127,636 C127.691044,636.02306 128.355793,636.047635 129,636.073388 L129,636.926612 Z M129,639 L127,639 L127,638.162286 C127.688578,638.111238 128.356615,638.056762 129,638 L129,639 Z M126,637.899481 C125.352772,637.935953 124.682546,637.969162 124,638 L124,636 C124.682546,636.030838 125.352772,636.064047 126,636.100815 L126,637.899481 Z M126,639 L124,639 L124,638.158314 C124.683368,638.110539 125.351129,638.057143 126,638 L126,639 Z M123,637.930894 C122.34538,637.956741 121.681725,637.980683 121,638 L121,636 C121.681725,636.019317 122.34538,636.043259 123,636.069106 L123,637.930894 Z M123,639 L121,639 L121,638.140491 C121.679261,638.099943 122.346201,638.053113 123,638 L123,639 Z M121,637.96084 C120.344559,637.977438 119.676797,637.990405 119,638 L119,636 C119.676797,636.009855 120.344559,636.022822 121,636.039419 L121,637.96084 Z M121,639 L119,639 L119,638.103191 C119.676797,638.078072 120.343737,638.043449 121,638 L121,639 Z M118,637.985749 C117.341002,637.994147 116.675431,637.999491 116,638 L116,636 C116.675431,636.000509 117.341002,636.006108 118,636.014251 L118,637.985749 Z M118,639 L116,639 L116,638.03914 C116.673788,638.037606 117.341824,638.024559 118,638 L118,639 Z M138.064,635.926938 C138.381,635.952875 138.678,635.977529 138.936,635.999872 C138.678,636.022214 138.381,636.047125 138.064,636.073062 L138.064,635.926938 Z M115,638 C114.324569,637.999491 113.659819,637.994147 113,637.985749 L113,636.014251 C113.659819,636.006108 114.324569,636.000509 115,636 L115,638 Z M115,639 L113,639 L113,638 C113.658176,638.024559 114.326212,638.037606 115,638.03914 L115,639 Z M112,638 C111.323747,637.990405 110.655711,637.977438 110,637.96084 L110,636.039419 C110.655711,636.022822 111.323747,636.009855 112,636 L112,638 Z M112,639 L110,639 L110,638 C110.655711,638.043449 111.323747,638.078072 112,638.103191 L112,639 Z M109,638 C108.318817,637.980683 107.654067,637.956741 107,637.930894 L107,636.069106 C107.654067,636.043259 108.318817,636.019317 109,636 L109,638 Z M109,639 L107,639 L107,638 C107.653246,638.053113 108.32046,638.099943 109,638.140491 L109,639 Z M106,638 C105.317454,637.969162 104.648049,637.935953 104,637.899481 L104,636.100815 C104.648049,636.064047 105.317454,636.030838 106,636 L106,638 Z M106,639 L104,639 L104,638 C104.649692,638.057143 105.316632,638.110539 106,638.158314 L106,639 Z M104,637 C103.308419,636.97694 102.644764,636.952197 102,636.926612 L102,636.073388 C102.644764,636.047635 103.308419,636.02306 104,636 L104,637 Z M104,639 L102,639 L102,638 C102.643943,638.056762 103.311704,638.111238 104,638.162286 L104,639 Z M101,637 C100.299326,636.96544 99.6349598,636.929661 99,636.893271 L99,636.106526 C99.6349598,636.070339 100.299326,636.03456 101,636 L101,637 Z M101,639 L99,639 L99,638 C99.6357812,638.054709 100.301791,638.108797 101,638.160398 L101,639 Z M98,637 C97.2837782,636.943872 96.6168378,636.888015 96,636.833243 L96,636.166486 C96.6168378,636.111714 97.2837782,636.055586 98,636 L98,637 Z M98,638 L96,638 L96,637 C96.6201232,637.051125 97.2870637,637.103272 98,637.154652 L98,638 Z M95,637 C94.2386037,636.887011 93.57577,636.779804 93,636.68194 L93,636.318505 C93.57577,636.220641 94.2386037,636.113434 95,636 L95,637 Z M95,638 L93,638 L93,637 C93.5831622,637.046196 94.2542094,637.096419 95,637.148548 L95,638 Z M92.9365,636.073062 C92.6185,636.047125 92.3215,636.022214 92.0635,635.999872 C92.3215,635.977529 92.6185,635.952875 92.9365,635.926938 L92.9365,636.073062 Z M92,638 L90,638 L90,637 C90.3761807,637.029853 91.0595483,637.081434 92,637.144851 L92,638 Z M1366.44,629.629178 L1335.70999,609.373788 L1335.70999,604.726295 C1335.70999,604.469484 1334.89999,604.261211 1333.89999,604.261211 C1333.55999,604.261211 1333.25999,604.285865 1332.98999,604.325927 C1332.71999,604.285865 1332.41999,604.261211 1332.07999,604.261211 C1331.07999,604.261211 1330.26999,604.469484 1330.26999,604.726295 L1330.26999,607.600257 L1283.31998,621.018846 L1188.16997,587.824589 L1188.16997,579.535013 C1188.16997,579.109479 1186.82997,578.764583 1185.16997,578.764583 C1184.62997,578.764583 1184.11997,578.805159 1183.66997,578.871416 C1183.22997,578.805159 1182.71997,578.764583 1182.16997,578.764583 C1180.51997,578.764583 1179.16997,579.109479 1179.16997,579.535013 L1179.16997,586.624515 L1091.65996,614.37003 C1081.91995,614.156108 1072.36995,613.966325 1063.08995,613.798628 L1063.08995,598.403114 L1058.44995,598.495309 L1058.44995,594.021419 L1028.06995,596.634206 L1028.06995,594.944395 L997.694943,597.557181 L997.694943,599.701547 L989.109941,599.871812 L989.109941,633.1634 L984.077941,633.1634 L979.06794,594.385062 L990.405941,594.385062 L994.405942,593.829068 L994.405942,593.073276 L992.405942,593.073276 L996.405942,592.517282 L996.405942,591.761489 L994.405942,591.761489 L998.405943,591.205495 L998.405943,590.449703 L978.42594,589.416812 L977.77094,584.345838 L979.14194,584.345838 L1003.13994,582.490385 L1003.13994,580.879158 L977.35994,580.879158 L977.21294,577.425061 L985.333941,577.425061 L985.333941,576.947908 L977.19194,576.947908 L977.09294,574.605542 L989.333941,574.605542 L989.333941,574.128389 L977.07194,574.128389 L976.97194,571.786023 L988.333941,571.786023 L988.333941,571.30887 L976.95194,571.30887 L976.85194,568.966504 L987.333941,568.966504 L987.333941,568.489351 L976.83194,568.489351 L976.73194,566.146985 L986.333941,566.146985 L986.333941,565.669832 L976.71094,565.669832 L976.61094,563.327466 L985.333941,563.327466 L985.333941,562.850313 L976.59094,562.850313 L976.208939,553.889435 L980.33394,553.889435 L980.33394,553.412282 L976.187939,553.412282 L975.799939,544.30194 L978.33394,544.30194 L978.33394,543.824787 L975.778939,543.824787 L975.359939,534 L972.815939,534 L972.396939,543.824787 L969.841939,543.824787 L969.841939,544.30194 L972.376939,544.30194 L971.987939,553.412282 L967.841938,553.412282 L967.841938,553.889435 L971.967939,553.889435 L971.584939,562.850313 L962.841938,562.850313 L962.841938,563.327466 L971.564939,563.327466 L971.464939,565.669832 L961.841937,565.669832 L961.841937,566.146985 L971.444939,566.146985 L971.343939,568.489351 L960.841937,568.489351 L960.841937,568.966504 L971.323939,568.966504 L971.223939,571.30887 L959.841937,571.30887 L959.841937,571.786023 L971.203939,571.786023 L971.103939,574.128389 L958.841937,574.128389 L958.841937,574.605542 L971.083939,574.605542 L970.983939,576.947908 L962.841938,576.947908 L962.841938,577.425061 L970.963939,577.425061 L970.815939,580.879158 L945.032935,580.879158 L945.032935,582.490385 L969.032938,584.345838 L971.340939,584.345838 L970.592939,589.415785 L969.768939,589.415785 L949.768936,590.449703 L949.768936,591.205495 L953.768936,591.761489 L951.768936,591.761489 L951.768936,592.517282 L955.768937,593.073276 L953.768936,593.073276 L953.768936,593.829068 L957.768937,594.385062 L969.858939,594.385062 L964.132938,633.1634 L939.228934,633.1634 L939.228934,626.297836 L938.249934,626.059773 L938.249934,619.702694 C938.249934,619.596374 937.913934,619.510086 937.499934,619.510086 C937.085934,619.510086 936.749934,619.596374 936.749934,619.702694 L936.749934,625.694589 L934.228933,625.081583 C934.228933,625.081583 933.921933,625.075163 933.329933,625.063863 L933.249933,625.016097 L933.249933,619.702694 C933.249933,619.596374 932.913933,619.510086 932.499933,619.510086 C932.085933,619.510086 931.749933,619.596374 931.749933,619.702694 L931.749933,624.116747 L924.728932,619.907885 L924.728932,619.168786 C924.728932,619.062466 924.392932,618.976178 923.978932,618.976178 C923.564932,618.976178 923.228932,619.062466 923.228932,619.168786 L923.228932,619.677527 L906.190929,621.465696 L902.939929,619.863971 L902.939929,619.168786 C902.939929,619.062466 902.603929,618.976178 902.189929,618.976178 C901.775929,618.976178 901.439929,619.062466 901.439929,619.168786 L901.439929,619.697815 L882.681926,622.310088 L879.151926,619.937162 L879.151926,619.168786 C879.151926,619.062466 878.815926,618.976178 878.401925,618.976178 C877.987925,618.976178 877.651925,619.062466 877.651925,619.168786 L877.651925,619.738391 L858.853923,623.778785 L855.362922,620.087909 L855.362922,619.168786 C855.362922,619.062466 855.026922,618.976178 854.612922,618.976178 C854.198922,618.976178 853.862922,619.062466 853.862922,619.168786 L853.862922,619.793605 L840.48092,624.214078 C839.09692,624.210483 837.69592,624.207145 836.285919,624.204063 L831.573919,620.021909 L831.573919,619.168786 C831.573919,619.062466 831.238919,618.976178 830.823919,618.976178 C830.409919,618.976178 830.073919,619.062466 830.073919,619.168786 L830.073919,619.83906 L820.054917,624.185316 C819.389917,624.185059 818.726917,624.184802 818.055917,624.184802 C817.385917,624.184802 816.722917,624.185059 816.056917,624.185316 L806.037915,619.83906 L806.037915,619.168786 C806.037915,619.062466 805.701915,618.976178 805.287915,618.976178 C804.873915,618.976178 804.537915,619.062466 804.537915,619.168786 L804.537915,620.021909 L799.826914,624.204063 C798.416914,624.207145 797.015914,624.210483 795.631914,624.214078 L782.249912,619.793605 L782.249912,619.168786 C782.249912,619.062466 781.913912,618.976178 781.499912,618.976178 C781.085912,618.976178 780.749912,619.062466 780.749912,619.168786 L780.749912,620.087909 L777.258911,623.778785 L758.460908,619.738391 L758.460908,619.168786 C758.460908,619.062466 758.124908,618.976178 757.710908,618.976178 C757.296908,618.976178 756.960908,619.062466 756.960908,619.168786 L756.960908,619.937162 L753.430908,622.310088 L734.672905,619.697815 L734.672905,619.168786 C734.672905,619.062466 734.336905,618.976178 733.922905,618.976178 C733.508905,618.976178 733.172905,619.062466 733.172905,619.168786 L733.172905,619.863971 L729.921904,621.465696 L712.883902,619.677527 L712.883902,619.168786 C712.883902,619.062466 712.547902,618.976178 712.133902,618.976178 C711.719902,618.976178 711.383902,619.062466 711.383902,619.168786 L711.383902,619.907885 L704.749901,623.884848 L704.749901,619.702694 C704.749901,619.596374 704.413901,619.510086 703.999901,619.510086 C703.585901,619.510086 703.2499,619.596374 703.2499,619.702694 L703.2499,624.784197 L702.7829,625.063863 C702.1909,625.075163 701.8839,625.081583 701.8839,625.081583 L699.7499,625.600597 L699.7499,619.702694 C699.7499,619.596374 699.4139,619.510086 698.9999,619.510086 C698.5859,619.510086 698.2499,619.596374 698.2499,619.702694 L698.2499,625.965524 L696.8839,626.297836 L696.8839,634.685 L667.449895,634.685 L667.449895,621.690662 C667.449895,621.690662 666.492895,621.787479 664.643895,621.921277 L664.643895,617.826696 C664.643895,617.826696 663.536895,617.938922 661.399894,618.084533 L661.399894,611.240028 C661.399894,611.240028 660.058894,611.372285 657.506894,611.497352 L657.506894,602.842335 C657.506894,602.842335 649.394893,606.144144 637.850891,605.944602 C626.305889,605.745317 624.734889,604.92635 624.734889,604.92635 L621.222889,610.377146 C616.500888,609.807027 615.537888,609.303936 615.537888,609.303936 L607.579887,617.654119 C601.365886,617.164896 598.369885,616.698015 598.369885,616.698015 L598.369885,621.015508 C595.085885,620.680627 593.486885,620.431008 593.486885,620.431008 L593.486885,631.715761 L580.402883,631.715761 L580.402883,631.191868 L578.402883,631.191868 L578.402883,630.351585 L576.402882,630.351585 L576.402882,629.254749 C576.402882,628.212099 571.465882,627.338431 565.115881,627.221839 L565.115881,626.511502 L564.252881,626.511502 L564.252881,624.189681 L558.99988,624.189681 L558.99988,624.886151 L563.10188,624.886151 L563.10188,626.511502 L562.23988,626.511502 L562.23988,627.221839 C555.889879,627.338174 550.951879,628.212099 550.951879,629.254749 L550.951879,630.351585 L548.951878,630.351585 L548.951878,631.191868 L546.951878,631.191868 L546.951878,631.715761 L536.165877,631.715761 L536.165877,630.968957 L531.999876,630.968957 L531.999876,630.540854 L529.832876,630.540854 L529.832876,629.803038 L526.832875,629.803038 L526.832875,629.470983 L523.165875,629.470983 L517.165874,628.23136 L515.391874,628.23136 L515.391874,627.207971 L513.996873,627.207971 L513.996873,625.008649 L518.090874,625.008649 L518.090874,624.282904 L513.996873,624.282904 L513.996873,624.153214 L513.375873,624.153214 L513.375873,627.207971 L511.980873,627.207971 L511.980873,628.23136 L496.328871,628.23136 L496.328871,627.78939 L492.91787,627.78939 L492.91787,628.23136 L475.165868,628.23136 L475.165868,627.608852 L469.504867,627.608852 L469.504867,619.241206 L467.421867,619.241206 L467.421867,614.618623 L466.421867,614.618623 L466.421867,611.302946 L467.421867,611.302946 L467.421867,610.637808 L466.421867,610.637808 L466.421867,608.305715 C466.421867,607.370155 463.762866,606.596129 460.280866,606.449491 L460.280866,606.048867 L462.288866,606.048867 L462.288866,605.754306 L459.398866,605.754306 L459.398866,601.069061 L463.491866,601.069061 L463.491866,600.343058 L459.398866,600.343058 L459.398866,600.213626 L458.777866,600.213626 L458.777866,605.754306 L455.887865,605.754306 L455.887865,606.048867 L457.895865,606.048867 L457.895865,606.449491 C454.413865,606.596129 451.754865,607.370155 451.754865,608.305715 L451.754865,610.637808 L450.754864,610.637808 L450.754864,611.302946 L451.754865,611.302946 L451.754865,614.618623 L450.754864,614.618623 L450.754864,619.241206 L448.671864,619.241206 L448.671864,627.608852 L445.870864,627.608852 L445.870864,625.65427 L443.870863,624.802687 L438.870863,624.802687 L438.870863,623.510932 L438.037863,623.510932 L438.037863,622.647279 L437.204862,622.647279 L437.204862,621.933604 L430.601862,621.933604 L430.601862,622.647279 L429.768861,622.647279 L429.768861,623.510932 L428.935861,623.510932 L428.935861,624.802687 L355.721851,624.802687 L355.721851,617.818478 L356.721851,617.818478 L356.721851,617.183129 L354.721851,617.183129 L354.721851,613.285521 L355.721851,613.285521 L355.721851,612.692033 L353.721851,612.692033 L353.721851,612.127821 L355.721851,612.127821 L355.721851,611.534589 L353.721851,611.534589 L353.721851,610.97012 L350.44385,610.97012 L350.44385,609.006293 L349.44385,609.006293 L349.44385,608.305715 L348.44385,608.305715 L348.44385,607.565845 L347.44385,607.565845 L347.44385,606.205778 L348.64585,606.205778 L348.64585,605.757901 L347.44385,605.757901 L347.44385,604.156946 L349.14585,604.156946 L349.14585,603.843638 L347.44385,603.843638 L347.44385,601.603483 L347.18685,601.603483 L347.18685,600.510242 L346.67485,600.510242 L346.67485,601.603483 L346.417849,601.603483 L346.417849,603.194165 L344.924849,603.194165 L344.924849,600.740087 L343.943849,600.740087 L343.943849,599.907765 L342.708849,599.907765 L342.708849,593.794912 L341.679849,593.794912 L341.679849,599.907765 L340.445849,599.907765 L340.445849,600.740087 L339.464848,600.740087 L339.464848,603.194165 L337.970848,603.194165 L337.970848,601.603483 L337.714848,601.603483 L337.714848,600.510242 L337.202848,600.510242 L337.202848,601.603483 L336.945848,601.603483 L336.945848,603.843638 L335.242848,603.843638 L335.242848,604.156946 L336.945848,604.156946 L336.945848,605.757901 L335.742848,605.757901 L335.742848,606.205778 L336.945848,606.205778 L336.945848,607.565845 L335.945848,607.565845 L335.945848,608.305715 L334.945848,608.305715 L334.945848,609.006293 L333.945848,609.006293 L333.945848,610.97012 L330.666847,610.97012 L330.666847,611.534589 L328.666847,611.534589 L328.666847,612.127821 L330.666847,612.127821 L330.666847,612.692033 L328.666847,612.692033 L328.666847,613.285521 L329.666847,613.285521 L329.666847,617.183129 L327.666847,617.183129 L327.666847,617.818478 L328.666847,617.818478 L328.666847,624.802687 L257.271837,624.802687 L257.271837,623.510932 L256.438837,623.510932 L256.438837,622.647279 L255.605837,622.647279 L255.605837,621.933604 L249.003836,621.933604 L249.003836,622.647279 L248.170835,622.647279 L248.170835,623.510932 L247.337835,623.510932 L247.337835,624.802687 L243.337835,624.802687 L241.337834,625.65427 L241.337834,627.252913 L239.504834,627.252913 L239.504834,622.988067 L237.421834,622.988067 L237.421834,618.365483 L236.421834,618.365483 L236.421834,615.049807 L237.421834,615.049807 L237.421834,614.384669 L236.421834,614.384669 L236.421834,612.052575 C236.421834,611.117016 233.762833,610.34299 230.280833,610.196351 L230.280833,609.795728 L232.288833,609.795728 L232.288833,609.501166 L229.398833,609.501166 L229.398833,604.815921 L233.491833,604.815921 L233.491833,604.089919 L229.398833,604.089919 L229.398833,603.96023 L228.777833,603.96023 L228.777833,609.501166 L225.887832,609.501166 L225.887832,609.795728 L227.895833,609.795728 L227.895833,610.196351 C224.413832,610.34299 221.754832,611.117016 221.754832,612.052575 L221.754832,614.384669 L220.754832,614.384669 L220.754832,615.049807 L221.754832,615.049807 L221.754832,618.365483 L220.754832,618.365483 L220.754832,622.988067 L218.671831,622.988067 L218.671831,627.769102 L205.215829,627.769102 L189.567827,633.516 L189.567827,631.373946 L188.567827,631.373946 L188.567827,628.035928 L189.567827,628.035928 L189.567827,627.574183 L188.567827,627.574183 L188.567827,623.702769 L189.567827,623.702769 L189.567827,623.240768 L188.567827,623.240768 L188.567827,621.423836 L189.567827,621.423836 L189.567827,620.961834 L188.567827,620.961834 L188.567827,618.888349 L186.567827,618.888349 L186.567827,615.96097 L184.067826,615.96097 L181.067826,606.54939 L180.090826,606.54939 L177.090825,615.96097 L174.590825,615.96097 L174.590825,618.888349 L172.590825,618.888349 L172.590825,620.961834 L171.590825,620.961834 L171.590825,621.423836 L172.590825,621.423836 L172.590825,623.240768 L171.590825,623.240768 L171.590825,623.702769 L172.590825,623.702769 L172.590825,627.574183 L171.590825,627.574183 L171.590825,628.035928 L172.590825,628.035928 L172.590825,631.11277 L166.108824,629.527481 L166.096824,629.527481 L166.096824,627.671771 L164.037823,627.671771 L164.037823,628.334598 L162.624823,628.334598 L162.624823,627.932176 L156.847822,627.932176 L156.847822,628.334598 L154.708822,628.334598 L154.708822,627.932176 L152.392822,627.932176 L152.392822,628.334598 L143.972821,628.334598 L143.972821,627.574183 L142.25282,627.574183 L142.25282,629.527481 L139.77382,629.527481 L139.77382,629.84721 L140.80182,629.84721 L140.80182,630.049833 L139.77382,630.049833 L139.77382,630.369562 L140.80182,630.369562 L140.80182,630.572185 L139.77382,630.572185 L139.77382,630.891914 L140.80182,630.891914 L140.80182,631.094537 L139.77382,631.094537 L139.77382,631.414265 L140.80182,631.414265 L140.80182,631.616889 L139.77382,631.616889 L139.77382,631.936617 L140.80182,631.936617 L140.80182,636.354523 C139.16882,636.197612 128.312818,635.203243 115.339816,635.203243 C102.379815,635.203243 91.5330131,636.195301 89.8830128,636.354009 L89.8830128,631.936617 L90.911013,631.936617 L90.911013,631.616889 L89.8830128,631.616889 L89.8830128,631.414265 L90.911013,631.414265 L90.911013,631.094537 L89.8830128,631.094537 L89.8830128,630.891914 L90.911013,630.891914 L90.911013,630.572185 L89.8830128,630.572185 L89.8830128,630.369562 L90.911013,630.369562 L90.911013,630.049833 L89.8830128,630.049833 L89.8830128,629.84721 L90.911013,629.84721 L90.911013,629.527481 L88.4320126,629.527481 L88.4320126,627.574183 L86.7110124,627.574183 L86.7110124,628.334598 L78.2920112,628.334598 L78.2920112,627.932176 L75.9750109,627.932176 L75.9750109,628.334598 L73.8360105,628.334598 L73.8360105,627.932176 L68.0600097,627.932176 L68.0600097,628.334598 L66.6460095,628.334598 L66.6460095,627.671771 L64.5880092,627.671771 L64.5880092,629.527481 L64.5750092,629.527481 L57.5230082,631.252475 L57.5230082,633.822888 L52.2270075,633.822888 L52.2270075,633.073259 L53.0610076,633.073259 L53.0610076,632.547055 L51.7930074,632.547055 L49.291007,631.734508 L39.4560056,631.734508 L39.4560056,630.90989 L38.6220055,630.90989 L38.6220055,629.840276 L37.8060054,629.840276 L37.8060054,630.90989 L37.7880054,630.90989 L32.7840047,629.528251 L31.0440044,629.528251 L31.0440044,628.552116 L28.8560041,628.552116 L28.8560041,625.854839 L28.059004,625.854839 L28.059004,628.552116 L25.8710037,628.552116 L25.8710037,629.528251 L24.1310034,629.528251 L19.1270027,630.90989 L19.1080027,630.90989 L19.1080027,629.840276 L18.2930026,629.840276 L18.2930026,630.90989 L17.4590025,630.90989 L17.4590025,631.734508 L7.62500109,631.734508 L5.12300073,632.547055 L3.85400055,632.547055 L3.85400055,633.073259 L4.68800067,633.073259 L4.68800067,633.822888 L0,633.822888 L0,643 L89.8830128,643 L89.8830128,638.45523 L140.80182,638.45523 L140.80182,643 L1400,643 L1400,629.629178 L1366.44,629.629178 Z" opacity=".264" transform="matrix(1 0 0 -1 0 1177)"/>
  </g>
</svg>
